<svg xmlns="http://www.w3.org/2000/svg" fill="none" viewBox="0 0 900 620"><defs><linearGradient id="limeGrad" x1="0" x2="1" y1="0" y2="1"><stop offset="0%" stop-color="#BFFF00"/><stop offset="100%" stop-color="#7ACC00"/></linearGradient><linearGradient id="redGrad" x1="0" x2="1" y1="0" y2="1"><stop offset="0%" stop-color="#FF3B3B"/><stop offset="100%" stop-color="#CC2020"/></linearGradient></defs><rect width="900" height="620" fill="#0A0A0A" rx="12"/><text x="450" y="36" fill="#555" font-family="system-ui,sans-serif" font-size="11" font-weight="500" letter-spacing=".2em" text-anchor="middle">SYSTEM ARCHITECTURE</text><rect width="410" height="250" x="30" y="56" fill="none" stroke="#333" stroke-width="1" rx="8"/><text x="50" y="78" fill="#666" font-family="system-ui,sans-serif" font-size="10" font-weight="600" letter-spacing=".15em">HUMAN ENTRY</text><rect width="120" height="36" x="160" y="96" fill="#1A1A1A" stroke="#BFFF00" stroke-width="1.5" rx="6"/><text x="220" y="119" fill="#BFFF00" font-family="monospace" font-size="11" font-weight="600" text-anchor="middle">Human speaks</text><line x1="220" x2="220" y1="132" y2="152" stroke="#555" stroke-width="1"/><polygon fill="#555" points="216 150 220 158 224 150"/><rect width="160" height="36" x="140" y="158" fill="#1A1A1A" stroke="#FFF" stroke-width="1" rx="6"/><text x="220" y="176" fill="#FFF" font-family="monospace" font-size="10" font-weight="500" text-anchor="middle">ritual/SKILL.md</text><text x="220" y="189" fill="#666" font-family="system-ui,sans-serif" font-size="8" font-style="italic" text-anchor="middle">intent classification</text><line x1="180" x2="80" y1="194" y2="236" stroke="#BFFF00" stroke-width="1" opacity=".6"/><rect width="100" height="30" x="40" y="230" fill="#0F1A0F" stroke="#BFFF00" stroke-width="1" rx="5"/><text x="90" y="249" fill="#BFFF00" font-family="monospace" font-size="9" text-anchor="middle">builder</text><text x="135" y="225" fill="#BFFF00" font-family="system-ui,sans-serif" font-size="8" opacity=".7">build</text><line x1="220" x2="195" y1="194" y2="236" stroke="#FF3B3B" stroke-width="1" opacity=".6"/><rect width="100" height="30" x="155" y="230" fill="#1A0F0F" stroke="#FF3B3B" stroke-width="1" rx="5"/><text x="205" y="249" fill="#FF3B3B" font-family="monospace" font-size="9" text-anchor="middle">debugger</text><text x="195" y="225" fill="#FF3B3B" font-family="system-ui,sans-serif" font-size="8" opacity=".7">debug</text><line x1="260" x2="310" y1="194" y2="236" stroke="#888" stroke-width="1" opacity=".5"/><rect width="100" height="30" x="270" y="230" fill="#1A1A1A" stroke="#555" stroke-width="1" rx="5"/><text x="320" y="249" fill="#999" font-family="monospace" font-size="9" text-anchor="middle">overview</text><text x="300" y="225" fill="#888" font-family="system-ui,sans-serif" font-size="8" opacity=".7">learn</text><rect width="410" height="250" x="460" y="56" fill="none" stroke="#333" stroke-width="1" rx="8"/><text x="480" y="78" fill="#666" font-family="system-ui,sans-serif" font-size="10" font-weight="600" letter-spacing=".15em">AGENT ENTRY</text><rect width="190" height="40" x="570" y="96" fill="#1A1A1A" stroke="#F60" stroke-width="1.5" rx="6"/><text x="665" y="115" fill="#F60" font-family="monospace" font-size="11" font-weight="600" text-anchor="middle">bootstrap.md</text><text x="665" y="128" fill="#963" font-family="system-ui,sans-serif" font-size="8" font-style="italic" text-anchor="middle">meta-protocol activation</text><line x1="90" x2="570" y1="260" y2="116" stroke="#BFFF00" stroke-dasharray="4 4" stroke-width=".5" opacity=".3"/><line x1="205" x2="570" y1="260" y2="116" stroke="#FF3B3B" stroke-dasharray="4 4" stroke-width=".5" opacity=".3"/><line x1="320" x2="570" y1="260" y2="116" stroke="#888" stroke-dasharray="4 4" stroke-width=".5" opacity=".2"/><g fill="#888" font-family="monospace" font-size="9"><rect width="350" height="114" x="490" y="150" fill="#111" stroke="#222" stroke-width=".5" rx="4"/><text x="505" y="167" fill="#F60" font-size="8" letter-spacing=".1em">PROTOCOLS</text><text x="505" y="183" fill="#666">0</text><text x="520" y="183" fill="#999">Track Cost</text><text x="665" y="183" fill="#666">1</text><text x="680" y="183" fill="#999">Distrust Priors</text><text x="505" y="198" fill="#666">2</text><text x="520" y="198" fill="#999">Lazy Elicitation</text><text x="665" y="198" fill="#666">3</text><text x="680" y="198" fill="#999">Interleave Build+Debug</text><text x="505" y="213" fill="#666">4</text><text x="520" y="213" fill="#999">Circuit Breaker</text><text x="665" y="213" fill="#666">5</text><text x="680" y="213" fill="#999">Search Before Asking</text><text x="505" y="228" fill="#666">6</text><text x="520" y="228" fill="#999">Ask at Forks</text><text x="665" y="228" fill="#666">7</text><text x="680" y="228" fill="#999">Verify Non-Interactively</text><text x="505" y="250" fill="#444" font-size="8" font-style="italic">loaded automatically by every entry point</text></g><rect width="410" height="280" x="30" y="310" fill="none" stroke="#1A3A1A" stroke-width="1" rx="8"/><text x="50" y="332" fill="#BFFF00" font-family="system-ui,sans-serif" font-size="10" font-weight="600" letter-spacing=".15em" opacity=".7">alpha BUILD SKILLS</text><g font-family="monospace" font-size="9"><rect width="105" height="26" x="50" y="346" fill="#0F1A0F" stroke="#2A4A2A" stroke-width=".5" rx="4"/><text x="102" y="363" fill="#BFFF00" opacity=".8" text-anchor="middle">contracts</text><rect width="105" height="26" x="165" y="346" fill="#0F1A0F" stroke="#2A4A2A" stroke-width=".5" rx="4"/><text x="217" y="363" fill="#BFFF00" opacity=".8" text-anchor="middle">frontend</text><rect width="105" height="26" x="280" y="346" fill="#0F1A0F" stroke="#2A4A2A" stroke-width=".5" rx="4"/><text x="332" y="363" fill="#BFFF00" opacity=".8" text-anchor="middle">backend</text><rect width="105" height="26" x="50" y="382" fill="#0F1A0F" stroke="#2A4A2A" stroke-width=".5" rx="4"/><text x="102" y="399" fill="#BFFF00" opacity=".8" text-anchor="middle">design</text><rect width="105" height="26" x="165" y="382" fill="#0F1A0F" stroke="#2A4A2A" stroke-width=".5" rx="4"/><text x="217" y="399" fill="#BFFF00" opacity=".8" text-anchor="middle">deploy</text><rect width="105" height="26" x="280" y="382" fill="#0F1A0F" stroke="#2A4A2A" stroke-width=".5" rx="4"/><text x="332" y="399" fill="#BFFF00" opacity=".8" text-anchor="middle">wallet</text><rect width="160" height="26" x="50" y="422" fill="#0F1A0F" stroke="#2A4A2A" stroke-width=".5" rx="4"/><text x="130" y="439" fill="#BFFF00" opacity=".8" text-anchor="middle">http · llm · agents</text><rect width="165" height="26" x="220" y="422" fill="#0F1A0F" stroke="#2A4A2A" stroke-width=".5" rx="4"/><text x="302" y="439" fill="#BFFF00" opacity=".8" text-anchor="middle">scheduler · secrets</text><rect width="160" height="26" x="50" y="458" fill="#0F1A0F" stroke="#2A4A2A" stroke-width=".5" rx="4"/><text x="130" y="475" fill="#BFFF00" opacity=".8" text-anchor="middle">passkey · multimodal</text><rect width="165" height="26" x="220" y="458" fill="#0F1A0F" stroke="#2A4A2A" stroke-width=".5" rx="4"/><text x="302" y="475" fill="#BFFF00" opacity=".8" text-anchor="middle">x402 · longrunning</text></g><text x="50" y="510" fill="#444" font-family="system-ui,sans-serif" font-size="8" font-style="italic">loaded conditionally based on user goal -&gt; 3-6 per project</text><rect width="100" height="32" x="270" y="266" fill="#1A1008" stroke="#F60" stroke-width=".8" rx="5"/><text x="320" y="280" fill="#F60" font-family="monospace" font-size="8" text-anchor="middle">inspiration</text><text x="320" y="292" fill="#963" font-family="system-ui,sans-serif" font-size="7" font-style="italic" text-anchor="middle">live trend search</text><rect width="100" height="32" x="40" y="266" fill="#1A1008" stroke="#F60" stroke-width=".8" rx="5"/><text x="90" y="280" fill="#F60" font-family="monospace" font-size="8" text-anchor="middle">projection</text><text x="90" y="292" fill="#963" font-family="system-ui,sans-serif" font-size="7" font-style="italic" text-anchor="middle">idea → Ritual spec</text><line x1="90" x2="90" y1="260" y2="266" stroke="#BFFF00" stroke-width="1" opacity=".4"/><line x1="90" x2="90" y1="298" y2="310" stroke="#BFFF00" stroke-width="1" opacity=".4"/><polygon fill="#BFFF00" points="86 308 90 316 94 308" opacity=".4"/><rect width="410" height="280" x="460" y="310" fill="none" stroke="#3A1A1A" stroke-width="1" rx="8"/><text x="480" y="332" fill="#FF3B3B" font-family="system-ui,sans-serif" font-size="10" font-weight="600" letter-spacing=".15em" opacity=".7">beta DEBUG SKILLS</text><g font-family="monospace" font-size="9"><rect width="160" height="26" x="480" y="346" fill="#1A0F0F" stroke="#4A2A2A" stroke-width=".5" rx="4"/><text x="560" y="363" fill="#FF3B3B" opacity=".8" text-anchor="middle">debugger agent</text><rect width="200" height="26" x="650" y="346" fill="#1A0F0F" stroke="#4A2A2A" stroke-width=".5" rx="4"/><text x="750" y="363" fill="#FF3B3B" opacity=".8" text-anchor="middle">triage -&gt; quick-match</text><rect width="200" height="26" x="480" y="382" fill="#1A0F0F" stroke="#4A2A2A" stroke-width=".5" rx="4"/><text x="580" y="399" fill="#FF3B3B" opacity=".8" text-anchor="middle">smoke tests -&gt; diagnosis</text><rect width="160" height="26" x="690" y="382" fill="#1A0F0F" stroke="#4A2A2A" stroke-width=".5" rx="4"/><text x="770" y="399" fill="#FF3B3B" opacity=".8" text-anchor="middle">common issues</text><rect width="160" height="26" x="480" y="418" fill="#1A0F0F" stroke="#4A2A2A" stroke-width=".5" rx="4"/><text x="560" y="435" fill="#FF3B3B" opacity=".8" text-anchor="middle">system topology</text><rect width="200" height="26" x="650" y="418" fill="#1A0F0F" stroke="#4A2A2A" stroke-width=".5" rx="4"/><text x="750" y="435" fill="#FF3B3B" opacity=".8" text-anchor="middle">diagnostic integrity</text><rect width="160" height="26" x="480" y="454" fill="#1A0F0F" stroke="#4A2A2A" stroke-width=".5" rx="4"/><text x="560" y="471" fill="#FF3B3B" opacity=".8" text-anchor="middle">testing</text></g><text x="480" y="510" fill="#444" font-family="system-ui,sans-serif" font-size="8" font-style="italic">loaded reactively when failures occur -&gt; sequential pipeline</text><line x1="560" x2="560" y1="260" y2="310" stroke="#FF3B3B" stroke-width="1" opacity=".4"/><polygon fill="#FF3B3B" points="556 308 560 316 564 308" opacity=".4"/><text x="450" y="600" fill="#333" font-family="system-ui,sans-serif" font-size="9" text-anchor="middle">RITUAL CHAIN · 1979 · ~350ms blocks (conservative baseline) · TEE-verified execution</text></svg>